<svg xmlns="http://www.w3.org/2000/svg" version="1.2" viewBox="0 0 1217 1516" width="1217" height="1516">
	<title>tesco-svg</title>
	<style>
		.s0 { fill: #0a55a0 } 
		.s1 { fill: #e52922 } 
	</style>
	<path id="Layer" class="s0" d="m444.8 1252.5h708.6c5.8 0 5.8 5.7 0 5.7-85.7 34.3-200 142.9-200 142.9-80 68.6-142.9 114.4-274.3 114.4h-674.4c-5.7 0-5.7-5.7 0-5.7 74.3-40.1 182.9-148.7 182.9-148.7 45.7-45.7 137.2-108.6 257.2-108.6z"/>
	<path id="Layer" class="s1" d="m770.5 143.5h-11.4v657.4c0 91.5 11.4 120 51.4 171.5h-377.2c45.8-51.5 51.5-74.3 51.5-171.5v-651.7c-188.6 0-360.1 28.6-445.8 91.5v-240.1h1177.3v240.1c-85.7-68.6-280-97.2-445.8-97.2z"/>
</svg>